<?xml version="1.0" encoding="UTF-8"?>
<svg id="Capa_1" data-name="Capa 1" xmlns="http://www.w3.org/2000/svg" viewBox="0 0 1000 1000">
  <defs>
    <style>
      .cls-1 {
        fill: #fff;
      }
    </style>
  </defs>
  <path class="cls-1" d="M321.27,832.73c1.2,0,2.39-.04,3.57-.14l-3.57.14Z"/>
  <path class="cls-1" d="M324.84,832.59c-1.18.1-2.37.14-3.57.14l3.57-.14Z"/>
  <path d="M837.98,219.69c-15.47-6.99-36.02,6.22-46.8,30.06-5.67,12.54-7.35,25.18-5.38,35.35l-26.29,20.03-41.78-39.22c-1.74-1.63-4.19-2.3-6.51-1.82-2.32.48-4.27,2.07-5.23,4.25l-27.25,62.67-66.33,24.3h-.01c-5.44-42.94-42.18-76.26-86.58-76.26-48.14,0-87.29,39.16-87.29,87.29,0,17.1,4.83,33.38,14.04,47.51h0s-100.95,36.96-100.95,36.96h0c-20.21-31.91-55.47-51.49-93.49-51.49-61.01,0-110.64,49.63-110.64,110.64s49.63,110.64,110.64,110.64c24.38,0,47.36-7.87,66.07-21.8v175.15c0,4.05,3.28,7.33,7.33,7.33s7.33-3.28,7.33-7.33v-188.25c7.09-7.59,13.2-16.26,18.06-25.87,1.83-3.61.38-8.02-3.23-9.84-3.62-1.83-8.02-.38-9.84,3.23-4.57,9.03-10.44,17.07-17.26,24.04-.16.15-.31.3-.45.46-17.7,17.83-41.91,28.23-67.99,28.23-52.93,0-95.99-43.06-95.99-95.99s43.06-95.99,95.99-95.99c34.73,0,66.82,18.84,83.8,49.17.04.06.08.13.11.19.17.29.36.59.54.86.08.1.17.18.25.28.05.07.11.13.17.19.09.09.16.2.25.29.14.14.3.26.45.38.14.12.29.24.44.35.2.15.4.3.62.43h.02c.07.04.14.07.21.11.1.05.2.1.3.15.07.03.13.07.2.1.04,0,.08.02.13.04.09.04.19.06.28.09.24.09.48.18.72.25.04,0,.07.03.11.04.21.06.4.08.61.13.08,0,.15.02.23.02.03,0,.06,0,.09,0,.13.01.27.02.4.03.13,0,.26.03.39.03.19,0,.36-.02.54-.04.12,0,.24-.01.35-.02,0,0,0,0,0,0,.27-.02.52-.06.77-.15h.02c.06,0,.1-.02.17-.04.06-.01.12-.04.18-.05.08-.02.17-.05.25-.07.07-.02.14-.04.22-.06l.23-.08,246.6-90.31c-2.22,16.47-9.94,31.52-22.33,43.12-2.95,2.76-3.11,7.4-.34,10.35,1.44,1.54,3.4,2.32,5.35,2.32,1.79,0,3.59-.66,5-1.98,16.51-15.45,26.4-36.9,27.54-59.39l73.73-27c1.88-.69,3.39-2.11,4.19-3.96l24.36-56.01,38.72,36.34c2.62,2.45,6.61,2.66,9.46.5l28.44-21.68c.59.73,1.23,1.4,1.9,1.99l-25.41,53.35-37.01-28.21c-1.57-1.19-3.56-1.72-5.5-1.42s-3.7,1.34-4.86,2.93l-178.04,244.89s-.06.06-.08.08l-.11.15c-12.16,16.4-54.12,17.92-69.3,17.12-4.09-.22-7.49,2.89-7.7,6.93s2.88,7.49,6.92,7.7c1.21.07,4.21.2,8.42.2,9.92,0,26.51-.75,41.99-4.89h0l-33.68,46.32c-1.55,2.16-1.84,4.98-.73,7.39l54.88,118.99c1.23,2.68,3.87,4.25,6.66,4.25,1.03,0,2.07-.21,3.06-.67,3.66-1.7,5.27-6.05,3.58-9.71l-53.06-115.1,50.74-69.78c.08-.08.15-.19.21-.27.04-.06.08-.13.13-.19l173.56-238.71,38.22,29.14c1.76,1.34,4.02,1.82,6.17,1.3,2.13-.52,3.93-1.97,4.9-3.98l29.55-62.06c.33.02.69.02,1.03.02,6.91,0,14.19-3.1,20.87-8.64,6.68-5.53,12.73-13.52,17.14-23.27,10.78-23.86,7.1-48.01-8.37-55.01ZM453.18,366.33c0-40.06,32.59-72.64,72.64-72.64s69.41,29.48,72.39,66.82l-131.43,48.13h-.01c-8.9-12.37-13.59-26.94-13.59-42.3ZM815.23,289.96c-3.7,2.01-7.14,2.57-9.65,1.44-4.06-1.84-6.36-8.35-5.86-16.93.31-5.59,1.82-12.08,4.81-18.69,6.57-14.55,17.41-23.32,24.53-23.32,1.05,0,2.03.21,2.89.59,6.72,3.03,8.6,18.92,1.05,35.6-4.71,10.44-11.62,17.92-17.77,21.31ZM414.26,496.92c2.48,3.2,1.89,7.8-1.31,10.28-23.1,17.87-20.37,51.27-20.34,51.6.36,4.02-2.6,7.59-6.62,7.96-.23.02-.46.03-.69.03-3.73,0-6.92-2.83-7.28-6.62-.16-1.69-3.61-41.69,25.97-64.56,3.2-2.48,7.8-1.89,10.28,1.31ZM464.06,454.71c-1.96-3.53-.69-7.98,2.84-9.94,1.44-.8,35.64-19.43,64.69.34,3.35,2.28,4.21,6.83,1.94,10.18-1.42,2.08-3.72,3.2-6.06,3.2-1.42,0-2.85-.41-4.11-1.27-21.52-14.64-49.06.2-49.33.35-3.54,1.94-7.99.67-9.95-2.87Z"/>
</svg>